<?xml version="1.0" standalone="no"?>
<!DOCTYPE svg PUBLIC "-//W3C//DTD SVG 20010904//EN"
 "http://www.w3.org/TR/2001/REC-SVG-20010904/DTD/svg10.dtd">
<svg version="1.0" xmlns="http://www.w3.org/2000/svg"
 width="421.000000pt" height="421.000000pt" viewBox="0 0 421.000000 421.000000"
 preserveAspectRatio="xMidYMid meet">

<g transform="translate(0.000000,421.000000) scale(0.100000,-0.100000)"
fill="#000000" stroke="none">
<path d="M1735 3750 c-61 -12 -149 -54 -239 -114 -73 -48 -88 -54 -151 -59
-121 -11 -249 -91 -341 -213 -47 -63 -104 -195 -104 -242 0 -15 -8 -46 -19
-68 -10 -21 -31 -82 -47 -134 -26 -85 -29 -109 -28 -230 1 -94 9 -186 27 -303
32 -198 30 -177 12 -177 -25 0 -22 -55 5 -85 10 -11 20 -43 23 -73 l6 -53 -31
26 c-17 14 -33 24 -35 21 -3 -3 -2 -31 2 -63 4 -32 10 -52 12 -46 5 15 43 -1
56 -24 5 -7 12 -11 18 -8 5 4 9 0 9 -7 0 -8 11 -29 25 -48 30 -41 33 -80 6
-80 -17 0 -18 -3 -8 -35 6 -20 14 -31 17 -25 4 7 12 0 18 -17 19 -50 22 -68
12 -83 -5 -8 -10 -10 -10 -5 0 6 -4 3 -10 -5 -11 -18 5 -40 31 -40 11 0 19 -3
20 -7 4 -39 15 -70 51 -142 33 -65 66 -110 152 -202 125 -134 187 -175 323
-210 114 -30 314 -37 422 -15 246 50 497 191 566 319 11 21 22 37 26 37 4 0
12 -13 19 -29 6 -16 21 -38 32 -47 18 -17 18 -19 1 -25 -13 -6 -8 -8 17 -9 19
-2 41 -2 49 -1 7 2 10 -2 7 -7 -3 -6 10 -10 30 -10 20 0 39 -5 43 -10 8 -14
77 -26 84 -15 12 19 -24 50 -90 78 -154 65 -205 126 -150 178 14 12 38 63 56
116 42 125 89 234 104 243 7 4 28 8 49 8 28 0 42 7 62 31 14 17 26 36 26 42
-1 7 -7 0 -15 -14 -11 -20 -24 -28 -52 -31 -21 -3 -41 -4 -44 -2 -3 2 -5 71
-3 154 2 146 3 153 29 190 15 22 43 51 61 65 34 26 45 59 22 68 -33 11 -85
-52 -109 -132 -12 -39 -14 -41 -26 -25 -7 10 -13 27 -14 38 0 12 -9 -10 -20
-49 -10 -38 -27 -95 -36 -125 l-16 -55 -11 32 c-16 49 -30 40 -36 -22 -3 -30
-1 -55 3 -55 5 0 6 -19 3 -42 -5 -33 -4 -38 4 -23 9 16 9 15 4 -10 -9 -48 -30
-62 -123 -85 -89 -22 -133 -40 -99 -40 30 0 119 22 146 36 30 15 82 19 82 5 0
-5 -6 -14 -14 -20 -11 -9 -15 -9 -19 1 -3 7 -6 4 -6 -8 -1 -11 -6 -25 -13 -32
-7 -7 -9 -12 -5 -12 7 0 -32 -86 -54 -117 -9 -13 -60 -41 -120 -67 -57 -24
-140 -61 -184 -83 -44 -22 -123 -57 -175 -76 -52 -20 -110 -42 -129 -50 l-34
-15 31 -7 c32 -7 195 28 219 47 19 15 195 60 219 55 13 -2 25 1 28 7 2 6 3 -2
1 -19 -10 -90 -64 -126 -268 -179 -194 -51 -246 -57 -347 -40 -58 10 -119 12
-190 8 -89 -5 -108 -4 -119 9 -32 39 9 44 177 21 36 -5 54 -1 107 26 36 18 71
40 80 50 15 16 12 18 -52 29 -37 7 -115 21 -173 31 -58 10 -161 26 -230 35
-155 21 -183 32 -209 84 -12 22 -21 45 -21 50 0 16 60 23 120 14 90 -14 184
15 147 46 -20 16 -127 29 -236 29 -102 -1 -113 5 -109 57 4 37 39 59 128 78
124 28 258 90 278 130 7 14 23 29 35 33 12 4 24 10 27 13 3 4 16 15 30 24 13
9 19 17 12 17 -9 0 -10 5 -2 19 5 11 10 31 10 46 0 14 7 37 16 51 16 23 16 30
0 91 -9 36 -15 67 -14 69 5 4 192 34 215 34 20 0 23 -5 23 -38 0 -49 32 -163
56 -199 10 -15 17 -31 16 -35 -3 -11 38 -30 53 -24 7 2 21 -2 32 -9 10 -8 32
-15 48 -16 29 -1 29 -1 5 -8 -41 -12 118 -33 246 -33 149 0 210 9 256 40 34
22 38 29 38 68 0 30 -5 46 -17 53 -13 7 -14 12 -6 23 20 25 24 75 13 183 -9
91 -9 110 4 124 10 11 12 26 7 51 l-7 35 -174 -1 c-172 0 -245 -8 -385 -41
-109 -25 -155 -50 -174 -95 -13 -30 -23 -39 -46 -42 -228 -34 -213 -35 -266
18 -53 52 -121 70 -163 43 -13 -9 -78 -23 -146 -32 -68 -8 -143 -20 -168 -26
-25 -5 -46 -8 -47 -7 -2 2 -8 39 -13 83 -6 44 -20 136 -32 203 -18 105 -20
132 -10 172 23 96 100 180 190 208 19 6 78 15 130 21 328 35 299 34 408 11
105 -22 211 -55 274 -86 21 -9 41 -14 45 -10 8 8 15 61 16 128 l0 47 72 -38
c40 -21 86 -47 101 -58 48 -33 74 -14 74 55 0 23 3 42 8 42 12 0 51 -28 113
-82 31 -26 61 -48 67 -48 12 0 65 -118 88 -196 9 -32 26 -79 37 -104 15 -36
21 -80 27 -210 5 -91 14 -207 20 -259 12 -86 14 -92 26 -70 7 13 21 45 29 72
9 26 20 47 24 47 9 0 31 69 31 97 0 11 7 26 15 33 30 25 15 212 -36 470 -30
150 -59 219 -149 355 -98 148 -100 163 -30 207 28 17 50 37 50 44 0 19 -96
100 -170 144 -89 53 -189 79 -338 87 l-123 6 7 26 c15 53 10 74 -16 82 -33 9
-145 9 -195 -1z m502 -1316 c-3 -3 -12 -4 -19 -1 -8 3 -5 6 6 6 11 1 17 -2 13
-5z m230 -26 c9 -7 22 -28 30 -47 16 -38 30 -180 14 -144 -5 12 -19 24 -31 28
-12 4 -41 25 -64 47 -63 62 -107 87 -177 103 -35 7 -59 14 -54 14 6 1 42 4 80
7 39 4 72 9 75 11 10 10 112 -6 127 -19z m-314 -15 c-7 -2 -21 -2 -30 0 -10 3
-4 5 12 5 17 0 24 -2 18 -5z m-60 -10 c-7 -2 -19 -2 -25 0 -7 3 -2 5 12 5 14
0 19 -2 13 -5z m-91 -22 c-29 -10 -55 -20 -58 -23 -2 -3 -7 -28 -11 -56 -3
-28 -9 -49 -14 -47 -12 8 -39 -24 -39 -46 0 -12 7 -19 19 -19 14 0 21 -10 27
-37 l7 -38 9 53 c20 130 104 209 233 220 48 3 71 0 113 -18 56 -24 108 -75
125 -123 l10 -30 13 24 c7 13 13 19 14 12 0 -18 51 -88 61 -85 12 3 11 -65 -1
-73 -6 -4 -8 -11 -5 -16 3 -5 -2 -6 -11 -2 -11 4 -15 3 -11 -4 5 -7 -1 -9 -15
-5 -13 3 -19 1 -15 -5 5 -7 -1 -9 -15 -5 -13 3 -19 1 -15 -5 4 -6 -4 -8 -20
-5 -16 3 -24 1 -20 -5 4 -6 -4 -8 -20 -5 -17 3 -24 1 -19 -6 4 -7 -6 -9 -31
-6 -29 4 -35 3 -23 -5 11 -9 4 -10 -30 -5 -34 4 -41 3 -30 -5 11 -8 2 -9 -34
-4 -36 4 -47 3 -42 -5 4 -7 1 -12 -9 -12 -9 0 -14 3 -12 8 3 4 -39 5 -93 2
-59 -3 -96 -1 -92 4 3 5 -2 7 -11 3 -9 -3 -16 -3 -15 1 0 4 -9 29 -21 55 -13
27 -24 58 -26 70 -2 12 -9 49 -14 82 -15 82 -5 112 46 141 45 25 96 42 128 43
11 0 -4 -8 -33 -18z m-664 -88 c-10 -2 -26 -2 -35 0 -10 3 -2 5 17 5 19 0 27
-2 18 -5z m-107 -13 c-56 -13 -113 -61 -148 -123 -30 -54 -32 -61 -19 -90 l13
-32 17 60 c55 186 292 224 412 66 30 -39 34 -51 34 -108 0 -75 -9 -97 -52
-119 -55 -28 -208 -54 -359 -61 -139 -6 -147 -5 -167 15 -21 21 -46 91 -36
101 3 3 10 -3 16 -13 10 -17 13 -14 25 30 31 103 25 222 -10 216 -9 -2 -17 -1
-17 2 0 6 91 34 137 42 87 17 112 20 148 21 l40 2 -34 -9z m1267 -267 c-3 -27
-7 -29 -83 -40 -93 -14 -295 -22 -288 -10 2 4 16 7 31 7 28 0 244 43 297 59
45 14 47 13 43 -16z m-445 -30 c-13 -2 -35 -2 -50 0 -16 2 -5 4 22 4 28 0 40
-2 28 -4z m-30 -30 c-7 -2 -19 -2 -25 0 -7 3 -2 5 12 5 14 0 19 -2 13 -5z m64
-9 c-3 -3 -12 -4 -19 -1 -8 3 -5 6 6 6 11 1 17 -2 13 -5z m-709 -89 c-6 -7
-245 -72 -273 -75 -45 -5 -62 1 -73 25 l-12 25 78 1 c42 0 115 6 162 13 100
16 125 18 118 11z"/>
<path d="M2103 2325 c-40 -17 -83 -80 -83 -122 0 -40 16 -82 41 -109 l21 -22
56 23 c31 12 81 28 110 36 62 15 73 30 65 87 -12 92 -119 147 -210 107z m22
-85 c0 -18 -6 -26 -23 -28 -24 -4 -38 18 -28 44 3 9 15 14 28 12 17 -2 23 -10
23 -28z"/>
<path d="M1260 2203 c-65 -34 -96 -110 -71 -176 9 -24 15 -25 103 -29 67 -3
99 0 115 10 19 11 23 11 31 -4 8 -15 12 -12 21 22 13 48 13 50 1 95 -21 76
-128 119 -200 82z m25 -83 c0 -18 -6 -26 -23 -28 -24 -4 -38 18 -28 44 3 9 15
14 28 12 17 -2 23 -10 23 -28z"/>
<path d="M2042 2655 c-141 -40 -185 -95 -128 -161 l23 -28 78 39 c69 35 85 39
149 39 39 0 95 -8 125 -17 30 -9 67 -17 83 -17 25 0 28 4 28 30 0 19 -9 40
-23 54 -58 58 -233 90 -335 61z"/>
<path d="M1167 2520 c-50 -19 -131 -79 -146 -108 -18 -35 -21 -77 -6 -96 14
-19 16 -18 67 16 95 63 108 69 158 75 28 3 77 0 111 -7 57 -12 63 -12 75 5 32
44 8 110 -45 125 -57 16 -161 11 -214 -10z"/>
<path d="M2795 2020 c4 -6 11 -8 16 -5 14 9 11 15 -7 15 -8 0 -12 -5 -9 -10z"/>
<path d="M3418 1799 c-46 -90 -64 -162 -53 -215 9 -39 9 -39 16 26 4 40 21 97
44 148 47 107 42 137 -7 41z"/>
<path d="M3128 1804 c-19 -42 -22 -67 -23 -169 0 -78 -5 -129 -13 -145 -11
-21 -9 -20 17 7 l30 33 -1 127 c-1 79 3 139 11 157 20 50 2 41 -21 -10z"/>
<path d="M2514 1125 c4 -28 15 -49 37 -69 l32 -29 -23 -17 -24 -18 25 5 c13 2
74 -13 134 -34 112 -39 185 -46 185 -18 0 18 -85 71 -151 94 -94 33 -189 73
-189 80 0 4 -7 16 -16 27 -14 18 -15 17 -10 -21z"/>
<path d="M3607 996 c-9 -64 -57 -162 -108 -219 -77 -88 -355 -192 -544 -204
-81 -5 -98 -3 -170 22 -155 53 -211 94 -203 147 5 35 42 34 147 -7 93 -35 192
-47 206 -25 3 5 -18 21 -47 35 -29 14 -64 32 -78 39 -14 8 -59 24 -100 36
-112 34 -168 65 -176 98 -10 48 -13 48 -12 -1 2 -41 7 -53 35 -78 19 -16 39
-29 45 -29 6 0 1 -11 -12 -25 -18 -19 -23 -36 -22 -70 0 -52 17 -72 92 -110
155 -79 323 -90 575 -39 16 4 36 10 45 14 8 5 42 21 74 37 78 37 183 140 218
214 26 55 54 176 46 201 -3 7 -8 -9 -11 -36z"/>
</g>
</svg>
