<svg xmlns="http://www.w3.org/2000/svg" width="64" height="64" viewBox="0 0 16.933 16.933"><g transform="translate(0 -280.067)"><path d="m 7.672916,280.59582 a 0.26460979,0.26460979 0 0 0 -0.264583,0.26458 v 1.5875 a 0.26460979,0.26460979 0 0 0 0.264583,0.26458 h 1.5875 A 0.26460979,0.26460979 0 0 0 9.525,282.4479 v -1.5875 a 0.26460979,0.26460979 0 0 0 -0.264584,-0.26458 z" color="#000" font-family="sans-serif" font-weight="400" overflow="visible" paint-order="stroke fill markers" white-space="normal" style="line-height:normal;font-variant-ligatures:normal;font-variant-position:normal;font-variant-caps:normal;font-variant-numeric:normal;font-variant-alternates:normal;font-feature-settings:normal;text-indent:0;text-align:start;text-decoration-line:none;text-decoration-style:solid;text-decoration-color:#000;text-transform:none;text-orientation:mixed;shape-padding:0;isolation:auto;mix-blend-mode:normal"/><path fill="#795548" d="m 7.9375,281.12498 h 1.058333 v 1.05834 H 7.9375 Z" color="#000" font-family="sans-serif" font-weight="400" overflow="visible" paint-order="stroke fill markers" white-space="normal" style="line-height:normal;font-variant-ligatures:normal;font-variant-position:normal;font-variant-caps:normal;font-variant-numeric:normal;font-variant-alternates:normal;font-feature-settings:normal;text-indent:0;text-align:start;text-decoration-line:none;text-decoration-style:solid;text-decoration-color:#000;text-transform:none;text-orientation:mixed;shape-padding:0;isolation:auto;mix-blend-mode:normal"/><path d="m 7.672916,284.29998 a 0.26460979,0.26460979 0 0 0 -0.264583,0.26459 v 1.5875 a 0.26460979,0.26460979 0 0 0 0.264583,0.26458 h 1.5875 A 0.26460979,0.26460979 0 0 0 9.525,286.15207 v -1.5875 a 0.26460979,0.26460979 0 0 0 -0.264584,-0.26459 z" color="#000" font-family="sans-serif" font-weight="400" overflow="visible" paint-order="stroke fill markers" white-space="normal" style="line-height:normal;font-variant-ligatures:normal;font-variant-position:normal;font-variant-caps:normal;font-variant-numeric:normal;font-variant-alternates:normal;font-feature-settings:normal;text-indent:0;text-align:start;text-decoration-line:none;text-decoration-style:solid;text-decoration-color:#000;text-transform:none;text-orientation:mixed;shape-padding:0;isolation:auto;mix-blend-mode:normal"/><path fill="#795548" d="m 7.9375,284.82915 h 1.058333 v 1.05833 H 7.9375 Z" color="#000" font-family="sans-serif" font-weight="400" overflow="visible" paint-order="stroke fill markers" white-space="normal" style="line-height:normal;font-variant-ligatures:normal;font-variant-position:normal;font-variant-caps:normal;font-variant-numeric:normal;font-variant-alternates:normal;font-feature-settings:normal;text-indent:0;text-align:start;text-decoration-line:none;text-decoration-style:solid;text-decoration-color:#000;text-transform:none;text-orientation:mixed;shape-padding:0;isolation:auto;mix-blend-mode:normal"/><path d="m 7.672916,288.00415 a 0.26460979,0.26460979 0 0 0 -0.264583,0.26459 v 7.93749 a 0.26460979,0.26460979 0 0 0 0.264583,0.26459 h 1.5875 A 0.26460979,0.26460979 0 0 0 9.525,296.20623 v -7.93749 a 0.26460979,0.26460979 0 0 0 -0.264584,-0.26459 z" color="#000" font-family="sans-serif" font-weight="400" overflow="visible" paint-order="stroke fill markers" white-space="normal" style="line-height:normal;font-variant-ligatures:normal;font-variant-position:normal;font-variant-caps:normal;font-variant-numeric:normal;font-variant-alternates:normal;font-feature-settings:normal;text-indent:0;text-align:start;text-decoration-line:none;text-decoration-style:solid;text-decoration-color:#000;text-transform:none;text-orientation:mixed;shape-padding:0;isolation:auto;mix-blend-mode:normal"/><path fill="#795548" d="m 7.9375,288.53332 h 1.058333 v 7.40833 H 7.9375 Z" color="#000" font-family="sans-serif" font-weight="400" overflow="visible" paint-order="stroke fill markers" white-space="normal" style="line-height:normal;font-variant-ligatures:normal;font-variant-position:normal;font-variant-caps:normal;font-variant-numeric:normal;font-variant-alternates:normal;font-feature-settings:normal;text-indent:0;text-align:start;text-decoration-line:none;text-decoration-style:solid;text-decoration-color:#000;text-transform:none;text-orientation:mixed;shape-padding:0;isolation:auto;mix-blend-mode:normal"/><path d="M 3.17539,282.18319 A 0.26460982,0.26460982 0 0 0 2.9390609,282.566 l 0.4687502,0.93945 -0.4687502,0.94141 a 0.26460982,0.26460982 0 0 0 0.2363291,0.38281 h 10.318359 a 0.26460982,0.26460982 0 0 0 0.11914,-0.0293 l 2.117188,-1.07617 a 0.26460982,0.26460982 0 0 0 -0.0039,-0.47461 l -2.115234,-1.03906 a 0.26460982,0.26460982 0 0 0 -0.117189,-0.0273 z" color="#000" font-family="sans-serif" font-weight="400" overflow="visible" paint-order="stroke fill markers" white-space="normal" style="line-height:normal;font-variant-ligatures:normal;font-variant-position:normal;font-variant-caps:normal;font-variant-numeric:normal;font-variant-alternates:normal;font-feature-settings:normal;text-indent:0;text-align:start;text-decoration-line:none;text-decoration-style:solid;text-decoration-color:#000;text-transform:none;text-orientation:mixed;shape-padding:0;isolation:auto;mix-blend-mode:normal"/><path fill="#ffd54f" d="m 3.6031241,282.71248 h 9.8300779 l 1.583985,0.7793 -1.585939,0.80859 H 3.6031241 l 0.3378909,-0.67578 a 0.26460982,0.26460982 0 0 0 0,-0.23633 z" color="#000" font-family="sans-serif" font-weight="400" overflow="visible" paint-order="stroke fill markers" white-space="normal" style="line-height:normal;font-variant-ligatures:normal;font-variant-position:normal;font-variant-caps:normal;font-variant-numeric:normal;font-variant-alternates:normal;font-feature-settings:normal;text-indent:0;text-align:start;text-decoration-line:none;text-decoration-style:solid;text-decoration-color:#000;text-transform:none;text-orientation:mixed;shape-padding:0;isolation:auto;mix-blend-mode:normal"/><path d="m 3.4136711,285.88826 a 0.26460982,0.26460982 0 0 0 -0.09375,0.0273 l -2.117188,1.07813 a 0.26460982,0.26460982 0 0 0 0.0039,0.47266 l 2.1171869,1.03906 a 0.26460982,0.26460982 0 0 0 0.1152342,0.0273 H 13.757414 a 0.26460982,0.26460982 0 0 0 0.236335,-0.38476 l -0.46875,-0.92187 0.470703,-0.95703 A 0.26460982,0.26460982 0 0 0 13.75742,285.88818 H 3.439061 a 0.26460982,0.26460982 0 0 0 -0.025389,0 z" color="#000" font-family="sans-serif" font-weight="400" overflow="visible" paint-order="stroke fill markers" white-space="normal" style="line-height:normal;font-variant-ligatures:normal;font-variant-position:normal;font-variant-caps:normal;font-variant-numeric:normal;font-variant-alternates:normal;font-feature-settings:normal;text-indent:0;text-align:start;text-decoration-line:none;text-decoration-style:solid;text-decoration-color:#000;text-transform:none;text-orientation:mixed;shape-padding:0;isolation:auto;mix-blend-mode:normal"/><path fill="#ffd54f" d="m 3.5035111,286.41756 h 9.8300779 l -0.341798,0.69336 a 0.26460982,0.26460982 0 0 0 0.002,0.23633 l 0.333984,0.65625 H 3.501604 l -1.58789,-0.7793 z" color="#000" font-family="sans-serif" font-weight="400" overflow="visible" paint-order="stroke fill markers" white-space="normal" style="line-height:normal;font-variant-ligatures:normal;font-variant-position:normal;font-variant-caps:normal;font-variant-numeric:normal;font-variant-alternates:normal;font-feature-settings:normal;text-indent:0;text-align:start;text-decoration-line:none;text-decoration-style:solid;text-decoration-color:#000;text-transform:none;text-orientation:mixed;shape-padding:0;isolation:auto;mix-blend-mode:normal"/><path d="M3.9683581 295.941a.26465.26465 0 1 0 0 .5293h8.9960929a.26465.26465 0 1 0 0-.5293zM8.17539 283.24178a.26500281.26500281 0 0 0 .02734.5293h.529297a.26465.26465 0 1 0 0-.5293H8.20273a.26460982.26460982 0 0 0-.02734 0zM8.202733 286.94491a.2646485.2646485 0 1 0 0 .52929H8.73203a.2646485.2646485 0 1 0 0-.52929z" color="#000" font-family="sans-serif" font-weight="400" overflow="visible" white-space="normal" style="line-height:normal;font-variant-ligatures:normal;font-variant-position:normal;font-variant-caps:normal;font-variant-numeric:normal;font-variant-alternates:normal;font-feature-settings:normal;text-indent:0;text-align:start;text-decoration-line:none;text-decoration-style:solid;text-decoration-color:#000;text-transform:none;text-orientation:mixed;shape-padding:0;isolation:auto;mix-blend-mode:normal"/></g></svg>