<svg version="1.0" xmlns="http://www.w3.org/2000/svg" width="561.333" height="561.333" viewBox="0 0 421 421"><path d="M173.5 46c-6.1 1.2-14.9 5.4-23.9 11.4-7.3 4.8-8.8 5.4-15.1 5.9-12.1 1.1-24.9 9.1-34.1 21.3-4.7 6.3-10.4 19.5-10.4 24.2 0 1.5-.8 4.6-1.9 6.8-1 2.1-3.1 8.2-4.7 13.4-2.6 8.5-2.9 10.9-2.8 23 .1 9.4.9 18.6 2.7 30.3 3.2 19.8 3 17.7 1.2 17.7-2.5 0-2.2 5.5.5 8.5 1 1.1 2 4.3 2.3 7.3l.6 5.3-3.1-2.6c-1.7-1.4-3.3-2.4-3.5-2.1-.3.3-.2 3.1.2 6.3.4 3.2 1 5.2 1.2 4.6.5-1.5 4.3.1 5.6 2.4.5.7 1.2 1.1 1.8.8.5-.4.9 0 .9.7 0 .8 1.1 2.9 2.5 4.8 3 4.1 3.3 8 .6 8-1.7 0-1.8.3-.8 3.5.6 2 1.4 3.1 1.7 2.5.4-.7 1.2 0 1.8 1.7 1.9 5 2.2 6.8 1.2 8.3-.5.8-1 1-1 .5 0-.6-.4-.3-1 .5-1.1 1.8.5 4 3.1 4 1.1 0 1.9.3 2 .7.4 3.9 1.5 7 5.1 14.2 3.3 6.5 6.6 11 15.2 20.2 12.5 13.4 18.7 17.5 32.3 21 11.4 3 31.4 3.7 42.2 1.5 24.6-5 49.7-19.1 56.6-31.9 1.1-2.1 2.2-3.7 2.6-3.7.4 0 1.2 1.3 1.9 2.9.6 1.6 2.1 3.8 3.2 4.7 1.8 1.7 1.8 1.9.1 2.5-1.3.6-.8.8 1.7.9 1.9.2 4.1.2 4.9.1.7-.2 1 .2.7.7-.3.6 1 1 3 1s3.9.5 4.3 1c.8 1.4 7.7 2.6 8.4 1.5 1.2-1.9-2.4-5-9-7.8-15.4-6.5-20.5-12.6-15-17.8 1.4-1.2 3.8-6.3 5.6-11.6 4.2-12.5 8.9-23.4 10.4-24.3.7-.4 2.8-.8 4.9-.8 2.8 0 4.2-.7 6.2-3.1 1.4-1.7 2.6-3.6 2.6-4.2-.1-.7-.7 0-1.5 1.4-1.1 2-2.4 2.8-5.2 3.1-2.1.3-4.1.4-4.4.2-.3-.2-.5-7.1-.3-15.4.2-14.6.3-15.3 2.9-19 1.5-2.2 4.3-5.1 6.1-6.5 3.4-2.6 4.5-5.9 2.2-6.8-3.3-1.1-8.5 5.2-10.9 13.2-1.2 3.9-1.4 4.1-2.6 2.5-.7-1-1.3-2.7-1.4-3.8 0-1.2-.9 1-2 4.9-1 3.8-2.7 9.5-3.6 12.5l-1.6 5.5-1.1-3.2c-1.6-4.9-3-4-3.6 2.2-.3 3-.1 5.5.3 5.5.5 0 .6 1.9.3 4.2-.5 3.3-.4 3.8.4 2.3.9-1.6.9-1.5.4 1-.9 4.8-3 6.2-12.3 8.5-8.9 2.2-13.3 4-9.9 4 3 0 11.9-2.2 14.6-3.6 3-1.5 8.2-1.9 8.2-.5 0 .5-.6 1.4-1.4 2-1.1.9-1.5.9-1.9-.1-.3-.7-.6-.4-.6.8-.1 1.1-.6 2.5-1.3 3.2-.7.7-.9 1.2-.5 1.2.7 0-3.2 8.6-5.4 11.7-.9 1.3-6 4.1-12 6.7-5.7 2.4-14 6.1-18.4 8.3-4.4 2.2-12.3 5.7-17.5 7.6-5.2 2-11 4.2-12.9 5l-3.4 1.5 3.1.7c3.2.7 19.5-2.8 21.9-4.7 1.9-1.5 19.5-6 21.9-5.5 1.3.2 2.5-.1 2.8-.7.2-.6.3.2.1 1.9-1 9-6.4 12.6-26.8 17.9-19.4 5.1-24.6 5.7-34.7 4-5.8-1-11.9-1.2-19-.8-8.9.5-10.8.4-11.9-.9-3.2-3.9.9-4.4 17.7-2.1 3.6.5 5.4.1 10.7-2.6 3.6-1.8 7.1-4 8-5 1.5-1.6 1.2-1.8-5.2-2.9-3.7-.7-11.5-2.1-17.3-3.1-5.8-1-16.1-2.6-23-3.5-15.5-2.1-18.3-3.2-20.9-8.4-1.2-2.2-2.1-4.5-2.1-5 0-1.6 6-2.3 12-1.4 9 1.4 18.4-1.5 14.7-4.6-2-1.6-12.7-2.9-23.6-2.9-10.2.1-11.3-.5-10.9-5.7.4-3.7 3.9-5.9 12.8-7.8 12.4-2.8 25.8-9 27.8-13 .7-1.4 2.3-2.9 3.5-3.3 1.2-.4 2.4-1 2.7-1.3.3-.4 1.6-1.5 3-2.4 1.3-.9 1.9-1.7 1.2-1.7-.9 0-1-.5-.2-1.9.5-1.1 1-3.1 1-4.6 0-1.4.7-3.7 1.6-5.1 1.6-2.3 1.6-3 0-9.1-.9-3.6-1.5-6.7-1.4-6.9.5-.4 19.2-3.4 21.5-3.4 2 0 2.3.5 2.3 3.8 0 4.9 3.2 16.3 5.6 19.9 1 1.5 1.7 3.1 1.6 3.5-.3 1.1 3.8 3 5.3 2.4.7-.2 2.1.2 3.2.9 1 .8 3.2 1.5 4.8 1.6 2.9.1 2.9.1.5.8-4.1 1.2 11.8 3.3 24.6 3.3 14.9 0 21-.9 25.6-4 3.4-2.2 3.8-2.9 3.8-6.8 0-3-.5-4.6-1.7-5.3-1.3-.7-1.4-1.2-.6-2.3 2-2.5 2.4-7.5 1.3-18.3-.9-9.1-.9-11 .4-12.4 1-1.1 1.2-2.6.7-5.1l-.7-3.5-17.4.1c-17.2 0-24.5.8-38.5 4.1-10.9 2.5-15.5 5-17.4 9.5-1.3 3-2.3 3.9-4.6 4.2-22.8 3.4-21.3 3.5-26.6-1.8-5.3-5.2-12.1-7-16.3-4.3-1.3.9-7.8 2.3-14.6 3.2-6.8.8-14.3 2-16.8 2.6-2.5.5-4.6.8-4.7.7-.2-.2-.8-3.9-1.3-8.3-.6-4.4-2-13.6-3.2-20.3-1.8-10.5-2-13.2-1-17.2 2.3-9.6 10-18 19-20.8 1.9-.6 7.8-1.5 13-2.1 32.8-3.5 29.9-3.4 40.8-1.1 10.5 2.2 21.1 5.5 27.4 8.6 2.1.9 4.1 1.4 4.5 1 .8-.8 1.5-6.1 1.6-12.8v-4.7l7.2 3.8c4 2.1 8.6 4.7 10.1 5.8 4.8 3.3 7.4 1.4 7.4-5.5 0-2.3.3-4.2.8-4.2 1.2 0 5.1 2.8 11.3 8.2 3.1 2.6 6.1 4.8 6.7 4.8 1.2 0 6.5 11.8 8.8 19.6.9 3.2 2.6 7.9 3.7 10.4 1.5 3.6 2.1 8 2.7 21 .5 9.1 1.4 20.7 2 25.9 1.2 8.6 1.4 9.2 2.6 7 .7-1.3 2.1-4.5 2.9-7.2.9-2.6 2-4.7 2.4-4.7.9 0 3.1-6.9 3.1-9.7 0-1.1.7-2.6 1.5-3.3 3-2.5 1.5-21.2-3.6-47-3-15-5.9-21.9-14.9-35.5-9.8-14.8-10-16.3-3-20.7 2.8-1.7 5-3.7 5-4.4 0-1.9-9.6-10-17-14.4-8.9-5.3-18.9-7.9-33.8-8.7l-12.3-.6.7-2.6c1.5-5.3 1-7.4-1.6-8.2-3.3-.9-14.5-.9-19.5.1zm50.2 131.6c-.3.3-1.2.4-1.9.1-.8-.3-.5-.6.6-.6 1.1-.1 1.7.2 1.3.5zm23 2.6c.9.7 2.2 2.8 3 4.7 1.6 3.8 3 18 1.4 14.4-.5-1.2-1.9-2.4-3.1-2.8-1.2-.4-4.1-2.5-6.4-4.7-6.3-6.2-10.7-8.7-17.7-10.3-3.5-.7-5.9-1.4-5.4-1.4.6-.1 4.2-.4 8-.7 3.9-.4 7.2-.9 7.5-1.1 1-1 11.2.6 12.7 1.9zm-31.4 1.5c-.7.2-2.1.2-3 0-1-.3-.4-.5 1.2-.5 1.7 0 2.4.2 1.8.5zm-6 1c-.7.2-1.9.2-2.5 0-.7-.3-.2-.5 1.2-.5s1.9.2 1.3.5zm-9.1 2.2c-2.9 1-5.5 2-5.8 2.3-.2.3-.7 2.8-1.1 5.6-.3 2.8-.9 4.9-1.4 4.7-1.2-.8-3.9 2.4-3.9 4.6 0 1.2.7 1.9 1.9 1.9 1.4 0 2.1 1 2.7 3.7l.7 3.8.9-5.3c2-13 10.4-20.9 23.3-22 4.8-.3 7.1 0 11.3 1.8 5.6 2.4 10.8 7.5 12.5 12.3l1 3 1.3-2.4c.7-1.3 1.3-1.9 1.4-1.2 0 1.8 5.1 8.8 6.1 8.5 1.2-.3 1.1 6.5-.1 7.3-.6.4-.8 1.1-.5 1.6.3.5-.2.6-1.1.2-1.1-.4-1.5-.3-1.1.4.5.7-.1.9-1.5.5-1.3-.3-1.9-.1-1.5.5.5.7-.1.9-1.5.5-1.3-.3-1.9-.1-1.5.5.4.6-.4.8-2 .5-1.6-.3-2.4-.1-2 .5.4.6-.4.8-2 .5-1.7-.3-2.4-.1-1.9.6.4.7-.6.9-3.1.6-2.9-.4-3.5-.3-2.3.5 1.1.9.4 1-3 .5-3.4-.4-4.1-.3-3 .5 1.1.8.2.9-3.4.4-3.6-.4-4.7-.3-4.2.5.4.7.1 1.2-.9 1.2-.9 0-1.4-.3-1.2-.8.3-.4-3.9-.5-9.3-.2-5.9.3-9.6.1-9.2-.4.3-.5-.2-.7-1.1-.3-.9.3-1.6.3-1.5-.1 0-.4-.9-2.9-2.1-5.5-1.3-2.7-2.4-5.8-2.6-7-.2-1.2-.9-4.9-1.4-8.2-1.5-8.2-.5-11.2 4.6-14.1 4.5-2.5 9.6-4.2 12.8-4.3 1.1 0-.4.8-3.3 1.8zm-66.4 8.8c-1 .2-2.6.2-3.5 0-1-.3-.2-.5 1.7-.5s2.7.2 1.8.5zm-10.7 1.3c-5.6 1.3-11.3 6.1-14.8 12.3-3 5.4-3.2 6.1-1.9 9l1.3 3.2 1.7-6c5.5-18.6 29.2-22.4 41.2-6.6 3 3.9 3.4 5.1 3.4 10.8 0 7.5-.9 9.7-5.2 11.9-5.5 2.8-20.8 5.4-35.9 6.1-13.9.6-14.7.5-16.7-1.5-2.1-2.1-4.6-9.1-3.6-10.1.3-.3 1 .3 1.6 1.3 1 1.7 1.3 1.4 2.5-3 3.1-10.3 2.5-22.2-1-21.6-.9.2-1.7.1-1.7-.2 0-.6 9.1-3.4 13.7-4.2 8.7-1.7 11.2-2 14.8-2.1l4-.2-3.4.9zm126.7 26.7c-.3 2.7-.7 2.9-8.3 4-9.3 1.4-29.5 2.2-28.8 1 .2-.4 1.6-.7 3.1-.7 2.8 0 24.4-4.3 29.7-5.9 4.5-1.4 4.7-1.3 4.3 1.6zm-44.5 3c-1.3.2-3.5.2-5 0-1.6-.2-.5-.4 2.2-.4 2.8 0 4 .2 2.8.4zm-3 3c-.7.2-1.9.2-2.5 0-.7-.3-.2-.5 1.2-.5s1.9.2 1.3.5zm6.4.9c-.3.3-1.2.4-1.9.1-.8-.3-.5-.6.6-.6 1.1-.1 1.7.2 1.3.5zm-70.9 8.9c-.6.7-24.5 7.2-27.3 7.5-4.5.5-6.2-.1-7.3-2.5L102 240l7.8-.1c4.2 0 11.5-.6 16.2-1.3 10-1.6 12.5-1.8 11.8-1.1z"/><path d="M210.3 188.5c-4 1.7-8.3 8-8.3 12.2 0 4 1.6 8.2 4.1 10.9l2.1 2.2 5.6-2.3c3.1-1.2 8.1-2.8 11-3.6 6.2-1.5 7.3-3 6.5-8.7-1.2-9.2-11.9-14.7-21-10.7zm2.2 8.5c0 1.8-.6 2.6-2.3 2.8-2.4.4-3.8-1.8-2.8-4.4.3-.9 1.5-1.4 2.8-1.2 1.7.2 2.3 1 2.3 2.8zM126 200.7c-6.5 3.4-9.6 11-7.1 17.6.9 2.4 1.5 2.5 10.3 2.9 6.7.3 9.9 0 11.5-1 1.9-1.1 2.3-1.1 3.1.4.8 1.5 1.2 1.2 2.1-2.2 1.3-4.8 1.3-5 .1-9.5-2.1-7.6-12.8-11.9-20-8.2zm2.5 8.3c0 1.8-.6 2.6-2.3 2.8-2.4.4-3.8-1.8-2.8-4.4.3-.9 1.5-1.4 2.8-1.2 1.7.2 2.3 1 2.3 2.8zM204.2 155.5c-14.1 4-18.5 9.5-12.8 16.1l2.3 2.8 7.8-3.9c6.9-3.5 8.5-3.9 14.9-3.9 3.9 0 9.5.8 12.5 1.7 3 .9 6.7 1.7 8.3 1.7 2.5 0 2.8-.4 2.8-3 0-1.9-.9-4-2.3-5.4-5.8-5.8-23.3-9-33.5-6.1zM116.7 169c-5 1.9-13.1 7.9-14.6 10.8-1.8 3.5-2.1 7.7-.6 9.6 1.4 1.9 1.6 1.8 6.7-1.6 9.5-6.3 10.8-6.9 15.8-7.5 2.8-.3 7.7 0 11.1.7 5.7 1.2 6.3 1.2 7.5-.5 3.2-4.4.8-11-4.5-12.5-5.7-1.6-16.1-1.1-21.4 1zM279.5 219c.4.6 1.1.8 1.6.5 1.4-.9 1.1-1.5-.7-1.5-.8 0-1.2.5-.9 1zM341.8 241.1c-4.6 9-6.4 16.2-5.3 21.5.9 3.9.9 3.9 1.6-2.6.4-4 2.1-9.7 4.4-14.8 4.7-10.7 4.2-13.7-.7-4.1zM312.8 240.6c-1.9 4.2-2.2 6.7-2.3 16.9 0 7.8-.5 12.9-1.3 14.5-1.1 2.1-.9 2 1.7-.7l3-3.3-.1-12.7c-.1-7.9.3-13.9 1.1-15.7 2-5 .2-4.1-2.1 1zM251.4 308.5c.4 2.8 1.5 4.9 3.7 6.9l3.2 2.9-2.3 1.7-2.4 1.8 2.5-.5c1.3-.2 7.4 1.3 13.4 3.4 11.2 3.9 18.5 4.6 18.5 1.8 0-1.8-8.5-7.1-15.1-9.4-9.4-3.3-18.9-7.3-18.9-8 0-.4-.7-1.6-1.6-2.7-1.4-1.8-1.5-1.7-1 2.1z"/><path d="M360.7 321.4c-.9 6.4-5.7 16.2-10.8 21.9-7.7 8.8-35.5 19.2-54.4 20.4-8.1.5-9.8.3-17-2.2-15.5-5.3-21.1-9.4-20.3-14.7.5-3.5 4.2-3.4 14.7.7 9.3 3.5 19.2 4.7 20.6 2.5.3-.5-1.8-2.1-4.7-3.5-2.9-1.4-6.4-3.2-7.8-3.9-1.4-.8-5.9-2.4-10-3.6-11.2-3.4-16.8-6.5-17.6-9.8-1-4.8-1.3-4.8-1.2.1.2 4.1.7 5.3 3.5 7.8 1.9 1.6 3.9 2.9 4.5 2.9.6 0 .1 1.1-1.2 2.5-1.8 1.9-2.3 3.6-2.2 7 0 5.2 1.7 7.2 9.2 11 15.5 7.9 32.3 9 57.5 3.9 1.6-.4 3.6-1 4.5-1.4.8-.5 4.2-2.1 7.4-3.7 7.8-3.7 18.3-14 21.8-21.4 2.6-5.5 5.4-17.6 4.6-20.1-.3-.7-.8.9-1.1 3.6z"/></svg>